<?xml version="1.0" encoding="utf-8"?>
<!-- Generator: Adobe Illustrator 15.0.0, SVG Export Plug-In . SVG Version: 6.00 Build 0)  -->
<!DOCTYPE svg PUBLIC "-//W3C//DTD SVG 1.1//EN" "http://www.w3.org/Graphics/SVG/1.1/DTD/svg11.dtd">
<svg version="1.1" id="Layer_1" xmlns="http://www.w3.org/2000/svg" xmlns:xlink="http://www.w3.org/1999/xlink" x="0px" y="0px"
	 width="2151.027px" height="942.199px" viewBox="0 0 2151.027 942.199" enable-background="new 0 0 2151.027 942.199"
	 xml:space="preserve">
<g>
	<path fill="#6D216F" d="M2151.027,0v467.442c0,262.275-212.478,474.757-474.702,474.757H474.567
		C212.513,942.199,0,729.647,0,467.442V0H2151.027z"/>
	<path fill="#FFFFFF" d="M1834.82,713.725c10.191,5.357,25.959,10.056,27.884,2.26c3.826-14.565-23.03-62.433-42.619-101.49
		c-16.556-33.341-31.874-61.589-58.9-110.094c-7.507-13.723-26.028-46.565-35.047-64.124c-8.161-15.663-12.326-26.971-14.461-31.62
		c-4.574-9.842-3.921-16.401,0.554-25.869c4.579-9.313,16.66-24.407,36.523-42.674c3.547-3.337,18.801-16.386,34.568-28.797
		c31.052-24.322,74.773-56.217,88.161-71.813c9.952-11.775,13.358-22.876,6.026-27.385c-9.434-5.647-26.023-6.265-74.395,0.257
		c-56.147,7.54-114.709,20.863-159.293,22.447c-11.188,0.429-26.986-0.274-39.552-9.019c-9.433-6.524-18.042-22.103-30.847-45.203
		c-11.742-21.225-17.868-28.66-27.166-28.196c-7.367,0.481-14.975,2.823-23.065,11.67c-9.089,9.934-19.449,29.505-35.8,59.008
		c-30.883,55.529-53.982,59.367-73.985,69.164c-5.163,2.616-50.81,16.885-84.311,28.091c-16.73,5.507-29.949,10.897-39.966,16.045
		c-8.779,4.574-9.916,12.44-4.854,18.296c0,0,1.377,4.405,29.64,19.175c6.062,3.113,13.942,7.093,21.794,11.463
		c15.044,8.45,29.465,19.778,29.365,37.646c-0.209,16.316-4.444,31.845-23.38,76.893c-8.12,18.965-17.209,38.778-26.472,59.883
		c-14.94,33.601-29.57,69.456-40.555,96.602c-11.567,28.383-16.625,41.377-16.042,47.972c0.484,3.217,4.784,5.282,9.293,3.596
		c16.631-6.489,49.817-33.102,68.613-47.128c13.807-10.156,65.894-51.468,104.243-78.439c27.335-19.11,49.403-31.83,71.815-37.007
		c38.554-8.884,75.841,7.073,147.755,55.234C1724.965,643.959,1813.615,702.417,1834.82,713.725 M918.288,392.754l10.739-74.983
		h-63.719l-16.077,111.956h92.366c32.843,0,40.415,18.486,35.147,53.204c-3.892,25.135-6.505,46.425-27.23,63.654
		c-8.64,6.924-18.486,11.827-27.75,14.635l-6.679,47.109c24.412-2.888,51.363-10.186,72.742-26.627
		c36.045-27.659,49.578-62.313,54.432-103.071c7.054-56.013-17.902-85.877-78.564-85.877H918.288z M333.008,569.256l20.382-139.48
		h40.963c31.745,0,40.419,16.7,35.91,47.647l-13.394,91.833H333.008z M415.767,392.754l-120.869,0.135l-31.466,216.627h211.48
		l19.005-131.195C501.903,422.359,476.358,392.754,415.767,392.754 M631.242,477.992l-29.506,206.337h63.689l29.745-206.337H631.242
		z M739.581,546.585c-8.5,6.958-18.486,11.827-27.54,14.635l-6.819,47.024c24.272-2.803,51.434-10.101,72.813-26.577
		c35.939-27.625,49.368-62.208,54.431-103.036c6.919-56.013-18.112-85.877-78.698-85.877H639.747l-5.303,36.973h97.29
		c32.808,0,40.31,18.486,34.978,53.204C762.955,508.066,760.411,529.355,739.581,546.585 M1144.264,429.727h48.405
		c32.05,0,39.417,18.83,34.22,53.204c-3.821,25.135-6.336,46.425-27.266,63.654c-8.4,6.924-18.387,11.827-27.545,14.635
		c-6.645,2.01-13.045,2.854-18.107,2.509c-20.517-1.546-26.781-15.164-21.654-50.486L1144.264,429.727z M1154.589,608.329
		c28.712,0,62.243-10.186,83.453-26.627c36.045-27.659,49.433-62.313,54.426-103.071c7.023-56.013-18.002-85.877-78.629-85.877
		l-127.893,0.07L1068.113,519.1C1059.953,576.708,1091.419,608.329,1154.589,608.329 M543.285,392.754l-31.261,216.593h63.549
		l31.536-216.593H543.285z"/>
</g>
</svg>
